# xmcd
#
# Track frame offsets: 
#        150
#        21717
#        55882
#        57171
#        75499
#        100872
#        151158
#        169374
#        202152
#        242383
#        288566
#
# Disc length: 4051 seconds
#
# Revision: 2
# Processed by: cddbd v1.5.1PL0 Copyright (c) Steve Scherf et al.
# Submitted via: ExactAudioCopy v0.95b2
#
DISCID=950fd10b
DTITLE=Popa Chubby - Hit the high hard one - Live
DYEAR=1900
DGENRE=Blues
TTITLE0=Heart Attack And Vine
TTITLE1=Trail Of Tears
TTITLE2=Size 13 - (interlude)
TTITLE3=What's So Great About Rock And Roll
TTITLE4=Stoop Down Baby
TTITLE5=Long Distance Pain
TTITLE6=Caffeine And Nicotine
TTITLE7=Isis
TTITLE8=Sweet Goddess Of Love And Beer
TTITLE9=San Catri
TTITLE10=Wild thing and Traul Of Tears - (extended version)
EXTD=
EXTT0=
EXTT1=
EXTT2=
EXTT3=
EXTT4=
EXTT5=
EXTT6=
EXTT7=
EXTT8=
EXTT9=
EXTT10=
PLAYORDER=
